<svg id="visual" viewBox="0 0 900 600" width="900" height="600" xmlns="http://www.w3.org/2000/svg" xmlns:xlink="http://www.w3.org/1999/xlink" version="1.1"><rect x="0" y="0" width="900" height="600" fill="#ffffff"></rect><path d="M0 405L21.5 407.2C43 409.3 86 413.7 128.8 399.5C171.7 385.3 214.3 352.7 257.2 346.5C300 340.3 343 360.7 385.8 373.3C428.7 386 471.3 391 514.2 406.3C557 421.7 600 447.3 642.8 447.8C685.7 448.3 728.3 423.7 771.2 421.2C814 418.7 857 438.3 878.5 448.2L900 458L900 0L878.5 0C857 0 814 0 771.2 0C728.3 0 685.7 0 642.8 0C600 0 557 0 514.2 0C471.3 0 428.7 0 385.8 0C343 0 300 0 257.2 0C214.3 0 171.7 0 128.8 0C86 0 43 0 21.5 0L0 0Z" fill="#329b83"></path><path d="M0 338L21.5 331.5C43 325 86 312 128.8 305.2C171.7 298.3 214.3 297.7 257.2 294.8C300 292 343 287 385.8 300.8C428.7 314.7 471.3 347.3 514.2 357C557 366.7 600 353.3 642.8 355.2C685.7 357 728.3 374 771.2 370.2C814 366.3 857 341.7 878.5 329.3L900 317L900 0L878.5 0C857 0 814 0 771.2 0C728.3 0 685.7 0 642.8 0C600 0 557 0 514.2 0C471.3 0 428.7 0 385.8 0C343 0 300 0 257.2 0C214.3 0 171.7 0 128.8 0C86 0 43 0 21.5 0L0 0Z" fill="#2ea58b"></path><path d="M0 296L21.5 294.3C43 292.7 86 289.3 128.8 276C171.7 262.7 214.3 239.3 257.2 241.5C300 243.7 343 271.3 385.8 271.8C428.7 272.3 471.3 245.7 514.2 230.7C557 215.7 600 212.3 642.8 221.3C685.7 230.3 728.3 251.7 771.2 254.3C814 257 857 241 878.5 233L900 225L900 0L878.5 0C857 0 814 0 771.2 0C728.3 0 685.7 0 642.8 0C600 0 557 0 514.2 0C471.3 0 428.7 0 385.8 0C343 0 300 0 257.2 0C214.3 0 171.7 0 128.8 0C86 0 43 0 21.5 0L0 0Z" fill="#28af94"></path><path d="M0 194L21.5 183C43 172 86 150 128.8 154.8C171.7 159.7 214.3 191.3 257.2 191C300 190.7 343 158.3 385.8 156.7C428.7 155 471.3 184 514.2 192.7C557 201.3 600 189.7 642.8 176.7C685.7 163.7 728.3 149.3 771.2 145.7C814 142 857 149 878.5 152.5L900 156L900 0L878.5 0C857 0 814 0 771.2 0C728.3 0 685.7 0 642.8 0C600 0 557 0 514.2 0C471.3 0 428.7 0 385.8 0C343 0 300 0 257.2 0C214.3 0 171.7 0 128.8 0C86 0 43 0 21.5 0L0 0Z" fill="#1fb99d"></path><path d="M0 119L21.5 118.7C43 118.3 86 117.7 128.8 116C171.7 114.3 214.3 111.7 257.2 106.7C300 101.7 343 94.3 385.8 94.8C428.7 95.3 471.3 103.7 514.2 99.2C557 94.7 600 77.3 642.8 79.3C685.7 81.3 728.3 102.7 771.2 106.3C814 110 857 96 878.5 89L900 82L900 0L878.5 0C857 0 814 0 771.2 0C728.3 0 685.7 0 642.8 0C600 0 557 0 514.2 0C471.3 0 428.7 0 385.8 0C343 0 300 0 257.2 0C214.3 0 171.7 0 128.8 0C86 0 43 0 21.5 0L0 0Z" fill="#0ec4a6"></path></svg>