<svg id="visual" viewBox="0 0 900 600" width="900" height="600" xmlns="http://www.w3.org/2000/svg" xmlns:xlink="http://www.w3.org/1999/xlink" version="1.1"><rect x="0" y="0" width="900" height="600" fill="#1E2023"></rect><path d="M0 472L21.5 465.5C43 459 86 446 128.8 445.3C171.7 444.7 214.3 456.3 257.2 459.3C300 462.3 343 456.7 385.8 453.7C428.7 450.7 471.3 450.3 514.2 454.2C557 458 600 466 642.8 451.5C685.7 437 728.3 400 771.2 378C814 356 857 349 878.5 345.5L900 342L900 0L878.5 0C857 0 814 0 771.2 0C728.3 0 685.7 0 642.8 0C600 0 557 0 514.2 0C471.3 0 428.7 0 385.8 0C343 0 300 0 257.2 0C214.3 0 171.7 0 128.8 0C86 0 43 0 21.5 0L0 0Z" fill="#329b83"></path><path d="M0 393L21.5 389.2C43 385.3 86 377.7 128.8 371.2C171.7 364.7 214.3 359.3 257.2 344.3C300 329.3 343 304.7 385.8 302.7C428.7 300.7 471.3 321.3 514.2 335.8C557 350.3 600 358.7 642.8 348.8C685.7 339 728.3 311 771.2 307.8C814 304.7 857 326.3 878.5 337.2L900 348L900 0L878.5 0C857 0 814 0 771.2 0C728.3 0 685.7 0 642.8 0C600 0 557 0 514.2 0C471.3 0 428.7 0 385.8 0C343 0 300 0 257.2 0C214.3 0 171.7 0 128.8 0C86 0 43 0 21.5 0L0 0Z" fill="#2ea58b"></path><path d="M0 193L21.5 200.8C43 208.7 86 224.3 128.8 234.2C171.7 244 214.3 248 257.2 239.7C300 231.3 343 210.7 385.8 209.5C428.7 208.3 471.3 226.7 514.2 234.2C557 241.7 600 238.3 642.8 229.2C685.7 220 728.3 205 771.2 216.7C814 228.3 857 266.7 878.5 285.8L900 305L900 0L878.5 0C857 0 814 0 771.2 0C728.3 0 685.7 0 642.8 0C600 0 557 0 514.2 0C471.3 0 428.7 0 385.8 0C343 0 300 0 257.2 0C214.3 0 171.7 0 128.8 0C86 0 43 0 21.5 0L0 0Z" fill="#28af94"></path><path d="M0 185L21.5 183.8C43 182.7 86 180.3 128.8 185.3C171.7 190.3 214.3 202.7 257.2 194.2C300 185.7 343 156.3 385.8 147C428.7 137.7 471.3 148.3 514.2 148.8C557 149.3 600 139.7 642.8 144.3C685.7 149 728.3 168 771.2 169.3C814 170.7 857 154.3 878.5 146.2L900 138L900 0L878.5 0C857 0 814 0 771.2 0C728.3 0 685.7 0 642.8 0C600 0 557 0 514.2 0C471.3 0 428.7 0 385.8 0C343 0 300 0 257.2 0C214.3 0 171.7 0 128.8 0C86 0 43 0 21.5 0L0 0Z" fill="#1fb99d"></path><path d="M0 82L21.5 84.2C43 86.3 86 90.7 128.8 94.5C171.7 98.3 214.3 101.7 257.2 106.5C300 111.3 343 117.7 385.8 110.8C428.7 104 471.3 84 514.2 79C557 74 600 84 642.8 83.2C685.7 82.3 728.3 70.7 771.2 66.3C814 62 857 65 878.5 66.5L900 68L900 0L878.5 0C857 0 814 0 771.2 0C728.3 0 685.7 0 642.8 0C600 0 557 0 514.2 0C471.3 0 428.7 0 385.8 0C343 0 300 0 257.2 0C214.3 0 171.7 0 128.8 0C86 0 43 0 21.5 0L0 0Z" fill="#0ec4a6"></path></svg>