<svg id="visual" viewBox="0 0 960 600" width="960" height="600" xmlns="http://www.w3.org/2000/svg" xmlns:xlink="http://www.w3.org/1999/xlink" version="1.1"><rect x="0" y="0" width="960" height="600" fill="#1E2023"></rect><defs><linearGradient id="grad1_0" x1="37.5%" y1="0%" x2="100%" y2="100%"><stop offset="17.999999999999996%" stop-color="#0ec4a6" stop-opacity="1"></stop><stop offset="82%" stop-color="#0ec4a6" stop-opacity="1"></stop></linearGradient></defs><defs><linearGradient id="grad1_1" x1="37.5%" y1="0%" x2="100%" y2="100%"><stop offset="17.999999999999996%" stop-color="#0ec4a6" stop-opacity="1"></stop><stop offset="82%" stop-color="#00989a" stop-opacity="1"></stop></linearGradient></defs><defs><linearGradient id="grad1_2" x1="37.5%" y1="0%" x2="100%" y2="100%"><stop offset="17.999999999999996%" stop-color="#0e6c7d" stop-opacity="1"></stop><stop offset="82%" stop-color="#00989a" stop-opacity="1"></stop></linearGradient></defs><defs><linearGradient id="grad1_3" x1="37.5%" y1="0%" x2="100%" y2="100%"><stop offset="17.999999999999996%" stop-color="#0e6c7d" stop-opacity="1"></stop><stop offset="82%" stop-color="#264352" stop-opacity="1"></stop></linearGradient></defs><defs><linearGradient id="grad1_4" x1="37.5%" y1="0%" x2="100%" y2="100%"><stop offset="17.999999999999996%" stop-color="#1e2023" stop-opacity="1"></stop><stop offset="82%" stop-color="#264352" stop-opacity="1"></stop></linearGradient></defs><defs><linearGradient id="grad2_0" x1="0%" y1="0%" x2="62.5%" y2="100%"><stop offset="17.999999999999996%" stop-color="#0ec4a6" stop-opacity="1"></stop><stop offset="82%" stop-color="#0ec4a6" stop-opacity="1"></stop></linearGradient></defs><defs><linearGradient id="grad2_1" x1="0%" y1="0%" x2="62.5%" y2="100%"><stop offset="17.999999999999996%" stop-color="#00989a" stop-opacity="1"></stop><stop offset="82%" stop-color="#0ec4a6" stop-opacity="1"></stop></linearGradient></defs><defs><linearGradient id="grad2_2" x1="0%" y1="0%" x2="62.5%" y2="100%"><stop offset="17.999999999999996%" stop-color="#00989a" stop-opacity="1"></stop><stop offset="82%" stop-color="#0e6c7d" stop-opacity="1"></stop></linearGradient></defs><defs><linearGradient id="grad2_3" x1="0%" y1="0%" x2="62.5%" y2="100%"><stop offset="17.999999999999996%" stop-color="#264352" stop-opacity="1"></stop><stop offset="82%" stop-color="#0e6c7d" stop-opacity="1"></stop></linearGradient></defs><defs><linearGradient id="grad2_4" x1="0%" y1="0%" x2="62.5%" y2="100%"><stop offset="17.999999999999996%" stop-color="#264352" stop-opacity="1"></stop><stop offset="82%" stop-color="#1e2023" stop-opacity="1"></stop></linearGradient></defs><g transform="translate(960, 0)"><path d="M0 481.1C-67.7 480.2 -135.4 479.2 -184.1 444.5C-232.9 409.8 -262.7 341.5 -288.5 288.5C-314.3 235.5 -336.3 197.8 -367.7 152.3C-399.2 106.8 -440.1 53.4 -481.1 0L0 0Z" fill="#25313a"></path><path d="M0 384.9C-54.2 384.1 -108.3 383.3 -147.3 355.6C-186.3 327.9 -210.1 273.2 -230.8 230.8C-251.5 188.4 -269 158.3 -294.2 121.8C-319.3 85.4 -352.1 42.7 -384.9 0L0 0Z" fill="#215769"></path><path d="M0 288.7C-40.6 288.1 -81.2 287.5 -110.5 266.7C-139.7 245.9 -157.6 204.9 -173.1 173.1C-188.6 141.3 -201.8 118.7 -220.6 91.4C-239.5 64.1 -264.1 32 -288.7 0L0 0Z" fill="#00828d"></path><path d="M0 192.5C-27.1 192.1 -54.2 191.7 -73.6 177.8C-93.1 163.9 -105.1 136.6 -115.4 115.4C-125.7 94.2 -134.5 79.1 -147.1 60.9C-159.7 42.7 -176.1 21.4 -192.5 0L0 0Z" fill="#00aea2"></path><path d="M0 96.2C-13.5 96 -27.1 95.8 -36.8 88.9C-46.6 82 -52.5 68.3 -57.7 57.7C-62.9 47.1 -67.3 39.6 -73.5 30.5C-79.8 21.4 -88 10.7 -96.2 0L0 0Z" fill="#0ec4a6"></path></g><g transform="translate(0, 600)"><path d="M0 -481.1C50.4 -435.5 100.9 -389.8 150 -362.2C199.1 -334.5 246.9 -325 300.5 -300.5C354.1 -276.1 413.4 -236.7 444.5 -184.1C475.6 -131.6 478.4 -65.8 481.1 0L0 0Z" fill="#25313a"></path><path d="M0 -384.9C40.4 -348.4 80.7 -311.8 120 -289.7C159.3 -267.6 197.6 -260 240.4 -240.4C283.3 -220.8 330.8 -189.4 355.6 -147.3C380.5 -105.2 382.7 -52.6 384.9 0L0 0Z" fill="#215769"></path><path d="M0 -288.7C30.3 -261.3 60.5 -233.9 90 -217.3C119.5 -200.7 148.2 -195 180.3 -180.3C212.5 -165.6 248.1 -142 266.7 -110.5C285.3 -78.9 287 -39.5 288.7 0L0 0Z" fill="#00828d"></path><path d="M0 -192.5C20.2 -174.2 40.4 -155.9 60 -144.9C79.7 -133.8 98.8 -130 120.2 -120.2C141.6 -110.4 165.4 -94.7 177.8 -73.6C190.2 -52.6 191.3 -26.3 192.5 0L0 0Z" fill="#00aea2"></path><path d="M0 -96.2C10.1 -87.1 20.2 -78 30 -72.4C39.8 -66.9 49.4 -65 60.1 -60.1C70.8 -55.2 82.7 -47.3 88.9 -36.8C95.1 -26.3 95.7 -13.2 96.2 0L0 0Z" fill="#0ec4a6"></path></g></svg>