<svg id="visual" viewBox="0 0 960 600" width="960" height="600" xmlns="http://www.w3.org/2000/svg" xmlns:xlink="http://www.w3.org/1999/xlink" version="1.1"><rect x="0" y="0" width="960" height="600" fill="#ffffff"></rect><defs><linearGradient id="grad1_0" x1="37.5%" y1="0%" x2="100%" y2="100%"><stop offset="17.999999999999996%" stop-color="#0ec4a6" stop-opacity="1"></stop><stop offset="82%" stop-color="#0ec4a6" stop-opacity="1"></stop></linearGradient></defs><defs><linearGradient id="grad1_1" x1="37.5%" y1="0%" x2="100%" y2="100%"><stop offset="17.999999999999996%" stop-color="#0ec4a6" stop-opacity="1"></stop><stop offset="82%" stop-color="#6dd4bc" stop-opacity="1"></stop></linearGradient></defs><defs><linearGradient id="grad1_2" x1="37.5%" y1="0%" x2="100%" y2="100%"><stop offset="17.999999999999996%" stop-color="#a2e3d2" stop-opacity="1"></stop><stop offset="82%" stop-color="#6dd4bc" stop-opacity="1"></stop></linearGradient></defs><defs><linearGradient id="grad1_3" x1="37.5%" y1="0%" x2="100%" y2="100%"><stop offset="17.999999999999996%" stop-color="#a2e3d2" stop-opacity="1"></stop><stop offset="82%" stop-color="#d2f1e8" stop-opacity="1"></stop></linearGradient></defs><defs><linearGradient id="grad1_4" x1="37.5%" y1="0%" x2="100%" y2="100%"><stop offset="17.999999999999996%" stop-color="#ffffff" stop-opacity="1"></stop><stop offset="82%" stop-color="#d2f1e8" stop-opacity="1"></stop></linearGradient></defs><defs><linearGradient id="grad2_0" x1="0%" y1="0%" x2="62.5%" y2="100%"><stop offset="17.999999999999996%" stop-color="#0ec4a6" stop-opacity="1"></stop><stop offset="82%" stop-color="#0ec4a6" stop-opacity="1"></stop></linearGradient></defs><defs><linearGradient id="grad2_1" x1="0%" y1="0%" x2="62.5%" y2="100%"><stop offset="17.999999999999996%" stop-color="#6dd4bc" stop-opacity="1"></stop><stop offset="82%" stop-color="#0ec4a6" stop-opacity="1"></stop></linearGradient></defs><defs><linearGradient id="grad2_2" x1="0%" y1="0%" x2="62.5%" y2="100%"><stop offset="17.999999999999996%" stop-color="#6dd4bc" stop-opacity="1"></stop><stop offset="82%" stop-color="#a2e3d2" stop-opacity="1"></stop></linearGradient></defs><defs><linearGradient id="grad2_3" x1="0%" y1="0%" x2="62.5%" y2="100%"><stop offset="17.999999999999996%" stop-color="#d2f1e8" stop-opacity="1"></stop><stop offset="82%" stop-color="#a2e3d2" stop-opacity="1"></stop></linearGradient></defs><defs><linearGradient id="grad2_4" x1="0%" y1="0%" x2="62.5%" y2="100%"><stop offset="17.999999999999996%" stop-color="#d2f1e8" stop-opacity="1"></stop><stop offset="82%" stop-color="#ffffff" stop-opacity="1"></stop></linearGradient></defs><g transform="translate(960, 0)"><path d="M0 566C-68.5 546.5 -136.9 527 -208.6 503.5C-280.2 480 -354.9 452.4 -400.2 400.2C-445.6 348.1 -461.4 271.3 -484.1 200.5C-506.8 129.7 -536.4 64.9 -566 0L0 0Z" fill="#e9f8f3"></path><path d="M0 452.8C-54.8 437.2 -109.6 421.6 -166.8 402.8C-224.1 384 -284 361.9 -320.2 320.2C-356.4 278.5 -369.1 217.1 -387.3 160.4C-405.5 103.8 -429.1 51.9 -452.8 0L0 0Z" fill="#baeadd"></path><path d="M0 339.6C-41.1 327.9 -82.2 316.2 -125.1 302.1C-168.1 288 -213 271.4 -240.1 240.1C-267.3 208.9 -276.8 162.8 -290.5 120.3C-304.1 77.8 -321.9 38.9 -339.6 0L0 0Z" fill="#89dbc7"></path><path d="M0 226.4C-27.4 218.6 -54.8 210.8 -83.4 201.4C-112.1 192 -142 181 -160.1 160.1C-178.2 139.2 -184.6 108.5 -193.6 80.2C-202.7 51.9 -214.6 25.9 -226.4 0L0 0Z" fill="#4cccb1"></path><path d="M0 113.2C-13.7 109.3 -27.4 105.4 -41.7 100.7C-56 96 -71 90.5 -80 80C-89.1 69.6 -92.3 54.3 -96.8 40.1C-101.4 25.9 -107.3 13 -113.2 0L0 0Z" fill="#0ec4a6"></path></g><g transform="translate(0, 600)"><path d="M0 -566C84.2 -567.8 168.4 -569.7 216.6 -523C264.8 -476.2 276.9 -381 326.7 -326.7C376.4 -272.3 463.8 -258.9 510 -211.2C556.1 -163.6 561.1 -81.8 566 0L0 0Z" fill="#e9f8f3"></path><path d="M0 -452.8C67.4 -454.3 134.7 -455.7 173.3 -418.4C211.8 -381 221.5 -304.8 261.3 -261.3C301.2 -217.9 371.1 -207.1 408 -169C444.9 -130.9 448.9 -65.4 452.8 0L0 0Z" fill="#baeadd"></path><path d="M0 -339.6C50.5 -340.7 101.1 -341.8 130 -313.8C158.9 -285.7 166.2 -228.6 196 -196C225.9 -163.4 278.3 -155.3 306 -126.7C333.7 -98.2 336.7 -49.1 339.6 0L0 0Z" fill="#89dbc7"></path><path d="M0 -226.4C33.7 -227.1 67.4 -227.9 86.6 -209.2C105.9 -190.5 110.8 -152.4 130.7 -130.7C150.6 -108.9 185.5 -103.6 204 -84.5C222.5 -65.4 224.4 -32.7 226.4 0L0 0Z" fill="#4cccb1"></path><path d="M0 -113.2C16.8 -113.6 33.7 -113.9 43.3 -104.6C53 -95.2 55.4 -76.2 65.3 -65.3C75.3 -54.5 92.8 -51.8 102 -42.2C111.2 -32.7 112.2 -16.4 113.2 0L0 0Z" fill="#0ec4a6"></path></g></svg>