<svg id="visual" viewBox="0 0 960 600" width="960" height="600" xmlns="http://www.w3.org/2000/svg" xmlns:xlink="http://www.w3.org/1999/xlink" version="1.1"><rect x="0" y="0" width="960" height="600" fill="#1E2023"></rect><path d="M0 324L20 331.7C40 339.3 80 354.7 120 364.7C160 374.7 200 379.3 240 367.8C280 356.3 320 328.7 360 327.5C400 326.3 440 351.7 480 355.2C520 358.7 560 340.3 600 330.3C640 320.3 680 318.7 720 322.5C760 326.3 800 335.7 840 335.8C880 336 920 327 940 322.5L960 318L960 601L940 601C920 601 880 601 840 601C800 601 760 601 720 601C680 601 640 601 600 601C560 601 520 601 480 601C440 601 400 601 360 601C320 601 280 601 240 601C200 601 160 601 120 601C80 601 40 601 20 601L0 601Z" fill="#60d6c0"></path><path d="M0 425L20 426.2C40 427.3 80 429.7 120 418.5C160 407.3 200 382.7 240 378.3C280 374 320 390 360 394.7C400 399.3 440 392.7 480 386.8C520 381 560 376 600 377.7C640 379.3 680 387.7 720 392.7C760 397.7 800 399.3 840 396.8C880 394.3 920 387.7 940 384.3L960 381L960 601L940 601C920 601 880 601 840 601C800 601 760 601 720 601C680 601 640 601 600 601C560 601 520 601 480 601C440 601 400 601 360 601C320 601 280 601 240 601C200 601 160 601 120 601C80 601 40 601 20 601L0 601Z" fill="#42cdb3"></path><path d="M0 482L20 474C40 466 80 450 120 435.5C160 421 200 408 240 407.8C280 407.7 320 420.3 360 427C400 433.7 440 434.3 480 440.2C520 446 560 457 600 464.8C640 472.7 680 477.3 720 479.5C760 481.7 800 481.3 840 475.7C880 470 920 459 940 453.5L960 448L960 601L940 601C920 601 880 601 840 601C800 601 760 601 720 601C680 601 640 601 600 601C560 601 520 601 480 601C440 601 400 601 360 601C320 601 280 601 240 601C200 601 160 601 120 601C80 601 40 601 20 601L0 601Z" fill="#0ec4a6"></path><path d="M0 514L20 511.8C40 509.7 80 505.3 120 506.3C160 507.3 200 513.7 240 512.7C280 511.7 320 503.3 360 499.5C400 495.7 440 496.3 480 492.8C520 489.3 560 481.7 600 482.8C640 484 680 494 720 495.3C760 496.7 800 489.3 840 482C880 474.7 920 467.3 940 463.7L960 460L960 601L940 601C920 601 880 601 840 601C800 601 760 601 720 601C680 601 640 601 600 601C560 601 520 601 480 601C440 601 400 601 360 601C320 601 280 601 240 601C200 601 160 601 120 601C80 601 40 601 20 601L0 601Z" fill="#0aa990"></path><path d="M0 562L20 558.8C40 555.7 80 549.3 120 545.2C160 541 200 539 240 537.5C280 536 320 535 360 536C400 537 440 540 480 535.7C520 531.3 560 519.7 600 522.5C640 525.3 680 542.7 720 544.2C760 545.7 800 531.3 840 522.8C880 514.3 920 511.7 940 510.3L960 509L960 601L940 601C920 601 880 601 840 601C800 601 760 601 720 601C680 601 640 601 600 601C560 601 520 601 480 601C440 601 400 601 360 601C320 601 280 601 240 601C200 601 160 601 120 601C80 601 40 601 20 601L0 601Z" fill="#078f7a"></path></svg>