<svg id="visual" viewBox="0 0 900 600" width="900" height="600" xmlns="http://www.w3.org/2000/svg" xmlns:xlink="http://www.w3.org/1999/xlink" version="1.1"><rect x="0" y="0" width="900" height="600" fill="#ffffff"></rect><path d="M0 421L21.5 406.5C43 392 86 363 128.8 351C171.7 339 214.3 344 257.2 352.2C300 360.3 343 371.7 385.8 373C428.7 374.3 471.3 365.7 514.2 359.7C557 353.7 600 350.3 642.8 361.5C685.7 372.7 728.3 398.3 771.2 399.2C814 400 857 376 878.5 364L900 352L900 0L878.5 0C857 0 814 0 771.2 0C728.3 0 685.7 0 642.8 0C600 0 557 0 514.2 0C471.3 0 428.7 0 385.8 0C343 0 300 0 257.2 0C214.3 0 171.7 0 128.8 0C86 0 43 0 21.5 0L0 0Z" fill="#329b83"></path><path d="M0 353L21.5 346.3C43 339.7 86 326.3 128.8 310.2C171.7 294 214.3 275 257.2 286.2C300 297.3 343 338.7 385.8 340.2C428.7 341.7 471.3 303.3 514.2 286.2C557 269 600 273 642.8 291.7C685.7 310.3 728.3 343.7 771.2 354C814 364.3 857 351.7 878.5 345.3L900 339L900 0L878.5 0C857 0 814 0 771.2 0C728.3 0 685.7 0 642.8 0C600 0 557 0 514.2 0C471.3 0 428.7 0 385.8 0C343 0 300 0 257.2 0C214.3 0 171.7 0 128.8 0C86 0 43 0 21.5 0L0 0Z" fill="#2ea58b"></path><path d="M0 195L21.5 203.3C43 211.7 86 228.3 128.8 238C171.7 247.7 214.3 250.3 257.2 244.3C300 238.3 343 223.7 385.8 232.7C428.7 241.7 471.3 274.3 514.2 273.7C557 273 600 239 642.8 226.3C685.7 213.7 728.3 222.3 771.2 219.7C814 217 857 203 878.5 196L900 189L900 0L878.5 0C857 0 814 0 771.2 0C728.3 0 685.7 0 642.8 0C600 0 557 0 514.2 0C471.3 0 428.7 0 385.8 0C343 0 300 0 257.2 0C214.3 0 171.7 0 128.8 0C86 0 43 0 21.5 0L0 0Z" fill="#28af94"></path><path d="M0 206L21.5 194.2C43 182.3 86 158.7 128.8 149.5C171.7 140.3 214.3 145.7 257.2 154.5C300 163.3 343 175.7 385.8 181.8C428.7 188 471.3 188 514.2 181.2C557 174.3 600 160.7 642.8 159.8C685.7 159 728.3 171 771.2 176.8C814 182.7 857 182.3 878.5 182.2L900 182L900 0L878.5 0C857 0 814 0 771.2 0C728.3 0 685.7 0 642.8 0C600 0 557 0 514.2 0C471.3 0 428.7 0 385.8 0C343 0 300 0 257.2 0C214.3 0 171.7 0 128.8 0C86 0 43 0 21.5 0L0 0Z" fill="#1fb99d"></path><path d="M0 74L21.5 84.5C43 95 86 116 128.8 118.2C171.7 120.3 214.3 103.7 257.2 102.8C300 102 343 117 385.8 117.2C428.7 117.3 471.3 102.7 514.2 103.3C557 104 600 120 642.8 119.8C685.7 119.7 728.3 103.3 771.2 98.3C814 93.3 857 99.7 878.5 102.8L900 106L900 0L878.5 0C857 0 814 0 771.2 0C728.3 0 685.7 0 642.8 0C600 0 557 0 514.2 0C471.3 0 428.7 0 385.8 0C343 0 300 0 257.2 0C214.3 0 171.7 0 128.8 0C86 0 43 0 21.5 0L0 0Z" fill="#0ec4a6"></path></svg>