<svg id="visual" viewBox="0 0 900 600" width="900" height="600" xmlns="http://www.w3.org/2000/svg" xmlns:xlink="http://www.w3.org/1999/xlink" version="1.1"><rect x="0" y="0" width="900" height="600" fill="#CCCCCC"></rect><path d="M0 359L25 358.2C50 357.3 100 355.7 150 365C200 374.3 250 394.7 300 379.8C350 365 400 315 450 302.3C500 289.7 550 314.3 600 340.5C650 366.7 700 394.3 750 414.3C800 434.3 850 446.7 875 452.8L900 459L900 0L875 0C850 0 800 0 750 0C700 0 650 0 600 0C550 0 500 0 450 0C400 0 350 0 300 0C250 0 200 0 150 0C100 0 50 0 25 0L0 0Z" fill="#009473"></path><path d="M0 311L25 305C50 299 100 287 150 270.8C200 254.7 250 234.3 300 213C350 191.7 400 169.3 450 168.2C500 167 550 187 600 202.5C650 218 700 229 750 251.3C800 273.7 850 307.3 875 324.2L900 341L900 0L875 0C850 0 800 0 750 0C700 0 650 0 600 0C550 0 500 0 450 0C400 0 350 0 300 0C250 0 200 0 150 0C100 0 50 0 25 0L0 0Z" fill="#00a6c1"></path><path d="M0 189L25 187.5C50 186 100 183 150 169.3C200 155.7 250 131.3 300 138.5C350 145.7 400 184.3 450 201C500 217.7 550 212.3 600 205C650 197.7 700 188.3 750 182.7C800 177 850 175 875 174L900 173L900 0L875 0C850 0 800 0 750 0C700 0 650 0 600 0C550 0 500 0 450 0C400 0 350 0 300 0C250 0 200 0 150 0C100 0 50 0 25 0L0 0Z" fill="#4facf7"></path></svg>